<?xml version="1.0" encoding="UTF-8"?>
<svg version="1.1" xmlns="http://www.w3.org/2000/svg" width="513" height="366">
<path d="M0 0 C169.29 0 338.58 0 513 0 C513 120.78 513 241.56 513 366 C343.71 366 174.42 366 0 366 C0 245.22 0 124.44 0 0 Z " fill="#FFFFFF" transform="translate(0,0)"/>
<path d="M0 0 C1.58554687 0.02513672 1.58554687 0.02513672 3.203125 0.05078125 C32.98438201 1.19873719 63.71287343 12.37029874 87 31 C87.82371094 31.63421875 88.64742187 32.2684375 89.49609375 32.921875 C99.84549048 40.99472736 109.02384508 49.55153137 117 60 C117.67804688 60.87398437 118.35609375 61.74796875 119.0546875 62.6484375 C141.14443937 91.95818609 150.89171145 125.62778808 151 162 C151.00402832 162.75764648 151.00805664 163.51529297 151.01220703 164.29589844 C150.84685981 204.93241037 130.05089125 242.93367922 102 271 C101.49919922 271.51401367 100.99839844 272.02802734 100.48242188 272.55761719 C73.97153196 299.64002142 34.51359794 313.51478344 -2.76318359 314.16625977 C-45.69107494 314.54236516 -84.86835404 298.18218038 -115.64453125 268.3125 C-116.76408168 267.20940898 -117.88267988 266.10535005 -119 265 C-119.80824219 264.21625 -120.61648437 263.4325 -121.44921875 262.625 C-134.38652728 249.23333128 -143.93856439 232.1071018 -151 215 C-151.29342285 214.29456055 -151.5868457 213.58912109 -151.88916016 212.86230469 C-166.70683776 176.41030653 -165.1080373 133.62093501 -150.09960938 97.5078125 C-142.72546986 80.69005915 -133.49932576 65.52917016 -120.94140625 52.09765625 C-118.85319134 49.90238584 -118.85319134 49.90238584 -116.625 46.9375 C-112.55851539 42.38691008 -107.77999792 38.77368257 -103 35 C-102.25492188 34.38898437 -101.50984375 33.77796875 -100.7421875 33.1484375 C-72.50513218 10.32956254 -36.05123687 -1.04568505 0 0 Z " fill="#FFFFFF" transform="translate(335,24)"/>
<path d="M0 0 C29.04 0 58.08 0 88 0 C88 98.34 88 196.68 88 298 C58.96 298 29.92 298 0 298 C0 199.66 0 101.32 0 0 Z " fill="#FFFFFF" transform="translate(27,33)"/>
<path d="M0 0 C1.99182251 -0.00217474 3.98360543 -0.02065559 5.9753418 -0.03930664 C48.08001629 -0.10168394 87.12866529 16.98012611 118.21044922 44.76367188 C119.92799454 46.27603637 121.68425596 47.73575052 123.44213867 49.20092773 C126.44490641 51.7683793 128.9363437 54.51264979 131.38745117 57.62280273 C133.79565205 60.65846145 136.22188828 63.64919121 138.77807617 66.56030273 C168.27418987 100.85670038 178.08225642 146.65574061 175.6887207 190.69165039 C175.32732861 195.2402767 174.64695966 199.69948499 173.82495117 204.18530273 C173.7013623 204.87285645 173.57777344 205.56041016 173.45043945 206.26879883 C167.47308654 238.58997622 152.66639073 268.49035743 129.82495117 292.18530273 C128.65057708 293.55372577 127.48333811 294.92832017 126.32495117 296.31030273 C112.82162848 311.72476854 94.16486097 323.49263455 75.82495117 332.24780273 C74.73843262 332.76656982 73.65191406 333.28533691 72.5324707 333.81982422 C63.17839002 338.18913742 53.81393147 341.60773169 43.82495117 344.18530273 C42.66350586 344.49854492 41.50206055 344.81178711 40.30541992 345.13452148 C-3.05865455 355.29410465 -49.92236976 346.70799101 -87.72631836 323.62768555 C-97.6924889 317.27914891 -106.66193077 310.37717105 -115.17504883 302.18530273 C-116.54445122 301.03278544 -117.91910995 299.88647163 -119.30004883 298.74780273 C-124.24343697 294.451402 -128.14633569 289.32209544 -132.17504883 284.18530273 C-132.74868164 283.48920898 -133.32231445 282.79311523 -133.91333008 282.07592773 C-163.01116965 246.24183414 -175.04607218 200.96151223 -170.66186523 155.28833008 C-165.78693648 113.28353158 -146.07532602 76.71472377 -116.17504883 47.18530273 C-115.35649414 46.36932617 -114.53793945 45.55334961 -113.69458008 44.71264648 C-91.18758452 23.17997974 -62.31312993 9.93568742 -32.17504883 3.18530273 C-30.86793945 2.86432617 -30.86793945 2.86432617 -29.53442383 2.53686523 C-19.79312984 0.18669291 -9.98557373 -0.00121346 0 0 Z M-6.41333008 17.23608398 C-41.20592797 18.56694838 -76.793411 34.15890159 -101.92504883 58.05639648 C-104.17504883 60.18530273 -104.17504883 60.18530273 -107.30004883 62.62280273 C-111.83124158 66.66147454 -115.42196968 71.43140248 -119.17504883 76.18530273 C-120.09157227 77.30291992 -120.09157227 77.30291992 -121.02661133 78.44311523 C-143.98897948 106.85773519 -154.05868504 142.13990737 -154.17504883 178.18530273 C-154.17907715 178.90492188 -154.18310547 179.62454102 -154.18725586 180.3659668 C-154.01224701 222.18278789 -133.08794366 260.33146547 -104.17504883 289.18530273 C-102.9162793 290.46147461 -102.9162793 290.46147461 -101.63208008 291.76342773 C-72.85849584 319.29890594 -32.12287438 331.82929592 6.92260742 331.33764648 C48.70320745 330.33795248 85.55178427 312.44237664 114.82495117 283.18530273 C115.33896484 282.68450195 115.85297852 282.18370117 116.38256836 281.66772461 C144.57033976 254.07479386 158.10023446 213.82721082 158.78979492 175.17749023 C158.80680556 173.18013246 158.81911076 171.18272441 158.82495117 169.18530273 C158.82897949 168.44441406 158.83300781 167.70352539 158.8371582 166.94018555 C158.68909406 132.43253036 142.37793858 95.23033711 118.86401367 70.34545898 C116.96505791 68.33372999 115.21073436 66.25493594 113.44995117 64.12280273 C106.21973777 55.84304223 96.80072572 49.4349108 87.82495117 43.18530273 C86.98706055 42.60006836 86.14916992 42.01483398 85.28588867 41.41186523 C62.49367713 26.19410466 35.13278723 17.89459718 7.82495117 17.18530273 C6.41922852 17.14276367 6.41922852 17.14276367 4.98510742 17.09936523 C1.18262543 17.04352849 -2.61146157 17.17646482 -6.41333008 17.23608398 Z " fill="#0070C0" transform="translate(327.175048828125,6.814697265625)"/>
<path d="M0 0 C40.59 0 81.18 0 123 0 C123 109.56 123 219.12 123 332 C82.41 332 41.82 332 0 332 C0 222.44 0 112.88 0 0 Z M17 17 C17 115.34 17 213.68 17 315 C46.04 315 75.08 315 105 315 C105 216.66 105 118.32 105 17 C75.96 17 46.92 17 17 17 Z " fill="#0070C0" transform="translate(10,16)"/>
<path d="M0 0 C4.39954402 3.96995891 7.46665492 8.25692486 10.5 13.3125 C11.056875 14.09625 11.61375 14.88 12.1875 15.6875 C18.18176964 27.67603928 18.74982132 44.18745526 14.5390625 56.8984375 C8.438142 71.07275656 -1.64642662 81.2521934 -15.7890625 87.27734375 C-27.9143518 91.90731733 -41.30589569 91.72418814 -53.5 87.3125 C-67.1960006 81.15474907 -76.74627929 71.58402632 -82.7109375 57.67578125 C-87.55482541 43.16809715 -86.97246276 28.3835918 -80.14453125 14.5703125 C-72.69280005 1.42489929 -61.66458568 -8.11196683 -47.0546875 -12.40625 C-29.36390576 -16.41968108 -13.68587031 -11.48432899 0 0 Z " fill="#FFFFFF" transform="translate(363.5,142.6875)"/>
<path d="M0 0 C13.93516132 10.94780013 24.5119991 26.53425378 27.30859375 44.2734375 C27.59285201 46.76645924 27.78083543 49.24050281 27.91015625 51.74609375 C27.95140625 52.4628125 27.99265625 53.17953125 28.03515625 53.91796875 C28.47259563 68.90026748 24.40253185 83.43313892 15.91015625 95.74609375 C15.34683594 96.56851563 14.78351563 97.3909375 14.203125 98.23828125 C4.18933595 111.77270771 -11.48421694 121.77064547 -28.08984375 124.74609375 C-46.66139226 127.23613377 -64.60937439 124.58434057 -80.08984375 113.74609375 C-91.77595386 104.52488913 -100.68708219 93.73575391 -106.08984375 79.74609375 C-106.39792969 78.98167969 -106.70601563 78.21726562 -107.0234375 77.4296875 C-112.43848176 62.11728962 -110.94362855 43.60296399 -105.08984375 28.74609375 C-95.48407501 8.91080505 -80.72598116 -3.73943415 -60.30859375 -11.28125 C-39.28447474 -17.68888178 -17.35730777 -12.66139896 0 0 Z M-79.08984375 20.74609375 C-89.96775507 33.72940726 -93.46619812 48.15858587 -92.08984375 64.74609375 C-89.47878314 78.69661758 -81.92966858 90.57752926 -70.61328125 99.07421875 C-58.46807964 107.12088483 -45.25023726 109.37765005 -30.91015625 107.28125 C-14.5376873 103.68781201 -3.8752843 94.02118944 5.09765625 80.43359375 C11.33118146 68.72291251 11.84049799 53.46874399 8.78515625 40.68359375 C3.96903948 26.23524344 -6.58001427 15.40050493 -19.76171875 8.30859375 C-40.2436107 -1.43414404 -63.80137868 4.53105504 -79.08984375 20.74609375 Z " fill="#0070C0" transform="translate(370.08984375,125.25390625)"/>
</svg>
