<?xml version="1.0" encoding="UTF-8"?>
<svg version="1.1" xmlns="http://www.w3.org/2000/svg" width="804" height="804">
<path d="M0 0 C265.32 0 530.64 0 804 0 C804 265.32 804 530.64 804 804 C538.68 804 273.36 804 0 804 C0 538.68 0 273.36 0 0 Z " fill="#FEFEFE" transform="translate(0,0)"/>
<path d="M0 0 C0.8034082 0.1556543 1.60681641 0.31130859 2.43457031 0.47167969 C48.73029949 9.72343889 90.17527311 39.42353463 116.47705078 78.17626953 C131.2275942 100.52573003 141.03031034 124.43719352 145.609375 150.78271484 C145.94163666 152.66871507 146.31069383 154.54817326 146.6875 156.42578125 C154.90640548 202.25759446 139.19915844 249.47394684 113.83984375 287.21484375 C109.96568024 292.70645128 105.70816318 297.73084393 101.1484375 302.6640625 C99.22629044 304.75396057 97.39076228 306.89090208 95.5625 309.0625 C76.42973561 330.9097527 49.73894903 344.81663743 23 355 C22.12730469 355.36867188 21.25460937 355.73734375 20.35546875 356.1171875 C6.53672938 361.73173042 -10.05672275 364.10687512 -24.91796875 364.203125 C-25.6489679 364.21018463 -26.37996704 364.21724426 -27.13311768 364.22451782 C-80.32908378 364.62118717 -126.16054334 347.83220508 -164.73657227 310.54736328 C-191.21451188 284.45709967 -210.12940927 248.80057044 -216 212 C-216.17772949 210.95577881 -216.35545898 209.91155762 -216.53857422 208.83569336 C-217.87442323 200.43450481 -218.31211206 192.2075652 -218.26074219 183.72363281 C-218.2500418 181.63316631 -218.26070286 179.54356545 -218.2734375 177.453125 C-218.28832818 164.33251507 -216.94723483 151.45321842 -213.8125 138.6875 C-213.49212769 137.3722937 -213.49212769 137.3722937 -213.1652832 136.03051758 C-206.66760819 110.38761935 -194.34545944 85.06755709 -177 65 C-176.09719648 63.90509619 -175.19629119 62.80862555 -174.296875 61.7109375 C-145.24188645 26.57500979 -100.65967931 1.82217385 -55.04882812 -2.77294922 C-36.66384089 -4.14210666 -18.08733045 -3.66744327 0 0 Z " fill="#FEFEFE" transform="translate(519,210)"/>
<path d="M0 0 C0.8034082 0.1556543 1.60681641 0.31130859 2.43457031 0.47167969 C48.73029949 9.72343889 90.17527311 39.42353463 116.47705078 78.17626953 C131.2275942 100.52573003 141.03031034 124.43719352 145.609375 150.78271484 C145.94163666 152.66871507 146.31069383 154.54817326 146.6875 156.42578125 C154.90640548 202.25759446 139.19915844 249.47394684 113.83984375 287.21484375 C109.96568024 292.70645128 105.70816318 297.73084393 101.1484375 302.6640625 C99.22629044 304.75396057 97.39076228 306.89090208 95.5625 309.0625 C76.42973561 330.9097527 49.73894903 344.81663743 23 355 C22.12730469 355.36867188 21.25460937 355.73734375 20.35546875 356.1171875 C6.53672938 361.73173042 -10.05672275 364.10687512 -24.91796875 364.203125 C-25.6489679 364.21018463 -26.37996704 364.21724426 -27.13311768 364.22451782 C-80.32908378 364.62118717 -126.16054334 347.83220508 -164.73657227 310.54736328 C-191.21451188 284.45709967 -210.12940927 248.80057044 -216 212 C-216.17772949 210.95577881 -216.35545898 209.91155762 -216.53857422 208.83569336 C-217.87442323 200.43450481 -218.31211206 192.2075652 -218.26074219 183.72363281 C-218.2500418 181.63316631 -218.26070286 179.54356545 -218.2734375 177.453125 C-218.28832818 164.33251507 -216.94723483 151.45321842 -213.8125 138.6875 C-213.49212769 137.3722937 -213.49212769 137.3722937 -213.1652832 136.03051758 C-206.66760819 110.38761935 -194.34545944 85.06755709 -177 65 C-176.09719648 63.90509619 -175.19629119 62.80862555 -174.296875 61.7109375 C-145.24188645 26.57500979 -100.65967931 1.82217385 -55.04882812 -2.77294922 C-36.66384089 -4.14210666 -18.08733045 -3.66744327 0 0 Z M-105 31 C-105.62036133 31.30131836 -106.24072266 31.60263672 -106.87988281 31.91308594 C-120.31236045 38.51406949 -132.9536825 46.67216834 -143.8515625 56.97265625 C-145.79797839 58.80936506 -147.80523449 60.49367149 -149.875 62.1875 C-178.37885942 87.18584445 -196.92933042 128.02135257 -199.85058594 165.53027344 C-202.56504781 210.39873137 -189.99294759 254.02248715 -160.2746582 288.30786133 C-158.86589999 289.88757446 -157.43859501 291.44741925 -156 293 C-155.47712402 293.5667041 -154.95424805 294.1334082 -154.41552734 294.71728516 C-130.41858809 320.41462755 -99.34243262 336.96292472 -65 344 C-63.21529297 344.36931641 -63.21529297 344.36931641 -61.39453125 344.74609375 C-26.71373972 350.53287715 10.54289273 343.9741308 41.22363281 326.97802734 C42.97418929 326.01421079 44.74883056 325.09456334 46.5234375 324.17578125 C56.3259299 318.92208588 64.61342076 312.25000869 73 305 C73.57057129 304.51063965 74.14114258 304.0212793 74.72900391 303.51708984 C81.94810537 297.28152894 88.24950936 290.61990809 94 283 C94.39928711 282.47567383 94.79857422 281.95134766 95.20996094 281.41113281 C106.0567282 267.07578779 113.86219641 252.06065965 120.15576172 235.23486328 C120.69037972 233.81962523 121.24208704 232.4106273 121.81689453 231.01123047 C124.03760185 225.50761705 125.1215876 219.96084653 126.125 214.125 C126.29386719 213.19558594 126.46273438 212.26617187 126.63671875 211.30859375 C134.29113162 168.09431006 125.72171046 126.36031724 102 89.5625 C100.68944044 87.69216702 99.35509282 85.83832403 98 84 C97.6090918 83.46391113 97.21818359 82.92782227 96.81542969 82.37548828 C82.45064544 62.83114782 64.89583004 48.11611239 44 36 C43.09121094 35.47043701 43.09121094 35.47043701 42.1640625 34.93017578 C-2.00018822 9.75028502 -59.60113469 8.66764215 -105 31 Z " fill="#0372C0" transform="translate(519,210)"/>
<path d="M0 0 C42.9 0 85.8 0 130 0 C130 115.83 130 231.66 130 351 C87.1 351 44.2 351 0 351 C0 235.17 0 119.34 0 0 Z M19 19 C19 122.29 19 225.58 19 332 C49.36 332 79.72 332 111 332 C111 228.71 111 125.42 111 19 C80.64 19 50.28 19 19 19 Z " fill="#0472C1" transform="translate(148,216)"/>
<path d="M0 0 C1.3974719 1.18227185 2.77204955 2.39202817 4.125 3.625 C4.93195313 4.34042969 5.73890625 5.05585938 6.5703125 5.79296875 C15.86159211 14.50176752 23.37976281 25.3678601 27.125 37.625 C27.42148437 38.5840625 27.71796875 39.543125 28.0234375 40.53125 C33.26918538 59.97420544 29.64068825 79.82756559 20.203125 97.41015625 C16.49423702 103.14777807 11.99269729 107.86146171 7.125 112.625 C6.41730469 113.36492187 5.70960938 114.10484375 4.98046875 114.8671875 C-3.66443264 123.36332386 -16.11992038 128.9958602 -27.875 131.625 C-28.96941406 131.89763672 -28.96941406 131.89763672 -30.0859375 132.17578125 C-49.68020554 135.33172078 -68.62403068 130.736124 -84.86328125 119.5703125 C-87.2954167 117.67332066 -89.59696743 115.70327972 -91.875 113.625 C-92.4834375 113.10808594 -93.091875 112.59117187 -93.71875 112.05859375 C-105.63371233 101.25388927 -114.19262835 83.50888276 -114.97998047 67.48901367 C-115.6236972 44.16800478 -110.68299715 25.45884689 -94.30859375 8.03515625 C-68.74331885 -17.28390413 -29.3580148 -21.87561811 0 0 Z " fill="#FDFEFE" transform="translate(525.875,331.375)"/>
<path d="M0 0 C1.3974719 1.18227185 2.77204955 2.39202817 4.125 3.625 C4.93195313 4.34042969 5.73890625 5.05585938 6.5703125 5.79296875 C15.86159211 14.50176752 23.37976281 25.3678601 27.125 37.625 C27.42148437 38.5840625 27.71796875 39.543125 28.0234375 40.53125 C33.26918538 59.97420544 29.64068825 79.82756559 20.203125 97.41015625 C16.49423702 103.14777807 11.99269729 107.86146171 7.125 112.625 C6.41730469 113.36492187 5.70960938 114.10484375 4.98046875 114.8671875 C-3.66443264 123.36332386 -16.11992038 128.9958602 -27.875 131.625 C-28.96941406 131.89763672 -28.96941406 131.89763672 -30.0859375 132.17578125 C-49.68020554 135.33172078 -68.62403068 130.736124 -84.86328125 119.5703125 C-87.2954167 117.67332066 -89.59696743 115.70327972 -91.875 113.625 C-92.4834375 113.10808594 -93.091875 112.59117187 -93.71875 112.05859375 C-105.63371233 101.25388927 -114.19262835 83.50888276 -114.97998047 67.48901367 C-115.6236972 44.16800478 -110.68299715 25.45884689 -94.30859375 8.03515625 C-68.74331885 -17.28390413 -29.3580148 -21.87561811 0 0 Z M-84.875 24.625 C-95.0505266 37.7851896 -97.77753338 51.31254479 -96.875 67.625 C-94.5474612 82.7737271 -86.0132219 95.47166692 -74.10546875 104.79296875 C-71.42808467 106.58938239 -68.73678648 108.14248724 -65.875 109.625 C-65.09511719 110.05683594 -64.31523437 110.48867188 -63.51171875 110.93359375 C-52.35002322 116.07829871 -36.44523946 115.18789914 -24.875 111.625 C-16.10924907 108.20613295 -9.45029638 103.28278218 -2.875 96.625 C-2.01261719 95.79548828 -2.01261719 95.79548828 -1.1328125 94.94921875 C8.82357637 84.55433607 11.6259946 70.36818941 11.36328125 56.52734375 C10.35943796 40.08735277 3.76283973 28.17017269 -8.10546875 17 C-19.63707965 7.11111505 -33.51625569 3.82246219 -48.4765625 4.30859375 C-62.9405427 5.65524018 -75.44117451 13.85937999 -84.875 24.625 Z " fill="#0372C0" transform="translate(525.875,331.375)"/>
</svg>
